<svg width="25" height="11" viewBox="0 0 25 11" fill="none" xmlns="http://www.w3.org/2000/svg">
<path opacity="0.4" d="M0.5 4.5C0.5 3.79168 0.500389 3.29052 0.5324 2.89872C0.563934 2.51276 0.623645 2.27717 0.717987 2.09202C0.909734 1.71569 1.21569 1.40973 1.59202 1.21799C1.77717 1.12365 2.01276 1.06393 2.39872 1.0324C2.79052 1.00039 3.29168 1 4 1H18C18.7083 1 19.2095 1.00039 19.6013 1.0324C19.9872 1.06393 20.2228 1.12365 20.408 1.21799C20.7843 1.40973 21.0903 1.7157 21.282 2.09202C21.3764 2.27717 21.4361 2.51276 21.4676 2.89872C21.4996 3.29052 21.5 3.79168 21.5 4.5V7C21.5 7.70832 21.4996 8.20948 21.4676 8.60128C21.4361 8.98724 21.3764 9.22283 21.282 9.40798C21.0903 9.7843 20.7843 10.0903 20.408 10.282C20.2228 10.3764 19.9872 10.4361 19.6013 10.4676C19.2095 10.4996 18.7083 10.5 18 10.5H4C3.29168 10.5 2.79052 10.4996 2.39872 10.4676C2.01276 10.4361 1.77717 10.3764 1.59202 10.282C1.2157 10.0903 0.909734 9.7843 0.717987 9.40798C0.623645 9.22283 0.563934 8.98724 0.5324 8.60128C0.500389 8.20948 0.5 7.70832 0.5 7V4.5Z" stroke="black"/>
<path opacity="0.4" fill-rule="evenodd" clip-rule="evenodd" d="M23 7.87398C23.8626 7.65196 24.5 6.86891 24.5 5.93699C24.5 5.00507 23.8626 4.22202 23 4V7.87398Z" fill="black"/>
<rect x="2" y="2.5" width="18" height="6.5" rx="1" fill="black"/>
</svg>
