<svg width="30" height="30" viewBox="0 0 30 30" fill="none" xmlns="http://www.w3.org/2000/svg">
<path fill-rule="evenodd" clip-rule="evenodd" d="M4.375 15C4.375 9.13197 9.13197 4.375 15 4.375C20.868 4.375 25.625 9.13197 25.625 15C25.625 20.868 20.868 25.625 15 25.625C9.13197 25.625 4.375 20.868 4.375 15ZM15.9375 8.75C15.9375 8.23223 15.5178 7.8125 15 7.8125C14.4822 7.8125 14.0625 8.23223 14.0625 8.75V15C14.0625 15.3232 14.229 15.6237 14.5031 15.795L18.2531 18.1387C18.6922 18.4132 19.2706 18.2797 19.545 17.8406C19.8194 17.4016 19.6859 16.8232 19.2469 16.5488L15.9375 14.4804V8.75Z" fill="#EF7958"/>
<circle cx="24.5" cy="6.5" r="4.5" fill="#1D1D1D" stroke="white" stroke-width="2"/>
</svg>
