<svg width="30" height="30" viewBox="0 0 30 30" fill="none" xmlns="http://www.w3.org/2000/svg">
<path d="M16.025 5.13299C15.7328 4.61091 15.1859 4.38111 14.6989 4.37512C14.213 4.36914 13.653 4.58673 13.3656 5.12424L13.1602 5.50821C10.035 11.352 7.53073 17.4438 5.67803 23.7097C5.47968 24.3806 5.85396 24.939 6.3005 25.2069C6.74548 25.4739 7.37496 25.5377 7.91414 25.1972L13.7035 21.5409C14.4213 21.0876 15.4387 21.0935 16.1906 21.577L22.0999 25.3772C22.6318 25.7192 23.2588 25.6829 23.713 25.4164C24.1754 25.1451 24.5278 24.5753 24.3106 23.908C22.2562 17.5959 19.5558 11.4425 16.2428 5.52217L16.025 5.13299Z" fill="#1D1D1D"/>
</svg>
