<svg width="11" height="20" viewBox="0 0 11 20" fill="none" xmlns="http://www.w3.org/2000/svg">
<g clip-path="url(#clip0_3_203)">
<path fill-rule="evenodd" clip-rule="evenodd" d="M10.2902 13.574C10.3567 13.6514 10.4095 13.7434 10.4455 13.8446C10.4815 13.9458 10.5 14.0543 10.5 14.1639C10.5 14.2735 10.4815 14.382 10.4455 14.4832C10.4095 14.5845 10.3567 14.6764 10.2902 14.7538L6.00541 19.7527C5.93909 19.8303 5.86027 19.8918 5.77351 19.9338C5.68676 19.9758 5.59374 19.9975 5.49981 19.9975C5.40589 19.9975 5.31287 19.9758 5.22611 19.9338C5.13936 19.8918 5.06054 19.8303 4.99421 19.7527L0.709427 14.7538C0.575333 14.5973 0.5 14.3852 0.5 14.1639C0.5 13.9427 0.575333 13.7305 0.709427 13.574C0.843523 13.4176 1.02539 13.3297 1.21503 13.3297C1.40467 13.3297 1.58654 13.4176 1.72064 13.574L5.49981 17.9847L9.27899 13.574C9.34533 13.4965 9.42413 13.4349 9.51089 13.3929C9.59766 13.3509 9.69066 13.3293 9.7846 13.3293C9.87853 13.3293 9.97154 13.3509 10.0583 13.3929C10.1451 13.4349 10.2239 13.4965 10.2902 13.574Z" fill="#3C4061"/>
<path fill-rule="evenodd" clip-rule="evenodd" d="M5.50014 0C5.68954 1.28713e-08 5.87118 0.0877784 6.00511 0.244025C6.13902 0.400272 6.21427 0.612187 6.21427 0.833152V18.3293C6.21427 18.5503 6.13902 18.7622 6.0051 18.9185C5.87118 19.0747 5.68954 19.1625 5.50014 19.1625C5.31074 19.1625 5.1291 19.0747 4.99517 18.9185C4.86124 18.7622 4.78601 18.5503 4.78601 18.3293V0.833152C4.78601 0.612187 4.86124 0.400272 4.99517 0.244025C5.1291 0.0877784 5.31074 -1.28713e-08 5.50014 0Z" fill="#3C4061"/>
</g>
<defs>
<clipPath id="clip0_3_203">
<rect width="10" height="20" fill="white" transform="translate(0.5)"/>
</clipPath>
</defs>
</svg>
