<svg width="21" height="22" viewBox="0 0 21 22" fill="none" xmlns="http://www.w3.org/2000/svg">
<path d="M9.625 4H6.825C5.35486 4 4.61979 4 4.05827 4.28611C3.56435 4.53778 3.16278 4.93935 2.91111 5.43328C2.625 5.99479 2.625 6.72986 2.625 8.2V12.75C2.625 13.5637 2.625 13.9706 2.71444 14.3044C2.95717 15.2103 3.66473 15.9178 4.5706 16.1606C4.90441 16.25 5.31127 16.25 6.125 16.25V18.2936C6.125 18.7598 6.125 18.9929 6.22058 19.1127C6.30369 19.2168 6.42974 19.2774 6.56297 19.2772C6.71617 19.2771 6.89821 19.1314 7.26229 18.8402L9.34956 17.1704C9.77595 16.8292 9.98915 16.6587 10.2266 16.5374C10.4372 16.4298 10.6614 16.3511 10.8931 16.3036C11.1542 16.25 11.4272 16.25 11.9733 16.25H13.3C14.7701 16.25 15.5052 16.25 16.0667 15.9639C16.5607 15.7122 16.9622 15.3107 17.2139 14.8167C17.5 14.2552 17.5 13.5201 17.5 12.05V11.875M17.6062 3.89384C18.6313 4.91897 18.6313 6.58103 17.6062 7.60616C16.581 8.63128 14.919 8.63128 13.8938 7.60616C12.8687 6.58103 12.8687 4.91897 13.8938 3.89384C14.919 2.86872 16.581 2.86872 17.6062 3.89384Z" stroke="#7A7D85" stroke-width="2" stroke-linecap="round" stroke-linejoin="round"/>
</svg>
